<svg aria-hidden="true" style="position: absolute; width: 0; height: 0; overflow: hidden;" version="1.1" xmlns="http://www.w3.org/2000/svg" xmlns:xlink="http://www.w3.org/1999/xlink">
<defs>
<symbol id="icon-mercedes" viewBox="0 0 32 32">
<path d="M16.313 0.313c8.438 0 15.25 6.813 15.25 15.25s-6.813 15.25-15.25 15.25-15.25-6.813-15.25-15.25 6.813-15.25 15.25-15.25zM16.563 1.75l2 11.938 9.875 8.5c1.125-2 1.75-4.25 1.75-6.688 0-7.563-6.063-13.688-13.563-13.813zM28.313 22.375l-12.063-4.25-11.813 4.438c2.438 4.063 6.813 6.75 11.875 6.75 5.125 0 9.625-2.813 12-7zM4.313 22.375l9.813-8.375 1.938-12.25c-7.5 0.125-13.563 6.25-13.563 13.813 0 2.5 0.688 4.813 1.813 6.875z"></path>
</symbol>
<symbol id="icon-mazda" viewBox="0 0 32 32">
<path d="M16 21.625c1.375 0.438 1.313-4.875 6.438-6.125 3.813-0.938 5-1.438 5.5-2.625l0.563-1.188s-0.25 5.313-1.063 8c-0.813 2.625-2.438 6.813-11.438 6.938-9.063-0.063-10.688-4.25-11.438-6.938-0.813-2.688-1.063-8-1.063-8l0.563 1.188c0.563 1.188 1.688 1.625 5.5 2.625 5.125 1.25 5.063 6.563 6.438 6.125zM11.75 28.375c1.25 0.25 2.75 0.313 4.25 0.313s3-0.125 4.25-0.313c2.563-0.375 4.875-1.063 6.313-2.125 3.375-2.375 4.813-6.438 4.813-10.813s-2.375-9.75-7.563-11.188c-1.125-0.313-2.313-0.5-3.5-0.625 0 0-0.5-0.063-1.25-0.125-1.063-0.063-2.125-0.125-3.063-0.125s-2 0-3.063 0.125c-0.813 0.063-1.25 0.125-1.25 0.125-1.188 0.125-2.438 0.313-3.5 0.625-5.125 1.375-7.563 6.813-7.563 11.188s1.5 8.375 4.813 10.813c1.438 1 3.75 1.75 6.313 2.125zM15.563 5.25h0.875c1.313 0 3.938 0.188 6.75 1.188 4 1.438 3.313 3.313 3.313 3.313s-6.75 2.625-8.75 4.938c-1.25 1.438-1.625 2.25-1.75 2.688-0.125-0.438-0.5-1.25-1.75-2.688-2-2.313-8.75-4.938-8.75-4.938s-0.688-1.875 3.313-3.313c2.813-1 5.438-1.188 6.75-1.188z"></path>
</symbol>
<symbol id="icon-hyundai" viewBox="0 0 32 32">
<path d="M32.001 15.984c0-4.167-5.051-8.651-16.14-8.651-6.397 0-15.861 2.781-15.861 8.751 0 3.512 3.116 5.772 6.925 7.071 0.043 0.020 0.088 0.028 0.133 0.041 2.871 0.959 6.112 1.383 8.708 1.383 1.24 0 2.393-0.063 3.485-0.167l0.004 0.001 0.008-0.001c8.715-0.831 12.737-4.751 12.737-8.428zM9.108 21.725c1.951-1.247 6.811-2.956 8.259-2.748l0.14 0.023c0.028 0.044 0.1 0.335-0.083 0.94-0.324 1.069-1.172 2.241-1.875 2.635-2.302-0.032-4.517-0.339-6.634-0.892l0.192 0.043zM22.644 10.064c-2.503 1.879-6.355 4.448-8.803 3.881-0.321-0.555 1.093-3.331 2.641-4.599 2.355 0.040 4.411 0.297 6.161 0.717zM1.999 16.084c0-2.74 3.259-4.707 7.087-5.787-2.080 2.559-3.759 5.861-4.779 9.408-1.401-0.957-2.308-2.157-2.308-3.621zM21.815 22.031c2.433-3.027 4.441-6.743 5.872-9.809 1.525 1.117 2.315 2.441 2.315 3.763 0 2.475-2.793 4.972-8.187 6.047z"></path>
</symbol>
<symbol id="icon-audi" viewBox="0 0 32 32">
<path d="M6 22c-3.308 0-6-2.692-6-6s2.692-6 6-6 6 2.692 6 6-2.692 6-6 6zM6 12c-2.205 0-4 1.795-4 4s1.795 4 4 4 4-1.795 4-4-1.795-4-4-4z"></path>
<path d="M12.667 22c-3.308 0-6-2.692-6-6s2.692-6 6-6 6 2.692 6 6-2.692 6-6 6zM12.667 12c-2.205 0-4 1.795-4 4s1.795 4 4 4 4-1.795 4-4-1.795-4-4-4z"></path>
<path d="M19.333 22c-3.308 0-6-2.692-6-6s2.692-6 6-6 6 2.692 6 6-2.692 6-6 6zM19.333 12c-2.205 0-4 1.795-4 4s1.795 4 4 4 4-1.795 4-4-1.795-4-4-4z"></path>
<path d="M26 22c-3.308 0-6-2.692-6-6s2.692-6 6-6 6 2.692 6 6-2.692 6-6 6zM26 12c-2.205 0-4 1.795-4 4s1.795 4 4 4 4-1.795 4-4-1.795-4-4-4z"></path>
</symbol>
<symbol id="icon-toyota" viewBox="0 0 32 32">
<path d="M16 26c-8.972 0-16-4.392-16-10s7.028-10 16-10 16 4.392 16 10-7.028 10-16 10zM16 8c-7.588 0-14 3.664-14 8s6.412 8 14 8 14-3.664 14-8-6.412-8-14-8z"></path>
<path d="M16 15.715c-5.359 0-10.783-1.668-10.783-4.857s5.424-4.857 10.783-4.857 10.783 1.668 10.783 4.857-5.424 4.857-10.783 4.857zM16 8c-5.361 0-8.783 1.692-8.783 2.857s3.421 2.857 8.783 2.857 8.783-1.692 8.783-2.857c0-1.165-3.421-2.857-8.783-2.857z"></path>
<path d="M16 26c-2.801 0-4.913-4.299-4.913-10s2.112-10 4.913-10 4.913 4.299 4.913 10-2.112 10-4.913 10zM16 8c-1.188 0-2.913 3.116-2.913 8s1.725 8 2.913 8 2.913-3.116 2.913-8-1.725-8-2.913-8z"></path>
</symbol>
<symbol id="icon-close" viewBox="0 0 32 32">
<path stroke-linejoin="round" stroke-linecap="round" stroke-miterlimit="4" stroke-width="2.4" d="M24 8l-16 16"></path>
<path stroke-linejoin="round" stroke-linecap="round" stroke-miterlimit="4" stroke-width="2.4" d="M8 8l16 16"></path>
</symbol>
<symbol id="icon-BlueHeart" viewBox="0 0 36 32">
<path stroke-linejoin="round" stroke-linecap="round" stroke-miterlimit="4" stroke-width="2" d="M31.26 4.915c-0.766-0.766-1.676-1.375-2.677-1.789s-2.074-0.628-3.158-0.628c-1.084 0-2.157 0.214-3.158 0.628s-1.911 1.023-2.677 1.789l-1.59 1.59-1.59-1.59c-1.548-1.548-3.646-2.417-5.835-2.417s-4.287 0.869-5.835 2.417c-1.548 1.548-2.417 3.646-2.417 5.835s0.869 4.287 2.417 5.835l13.26 13.26 13.26-13.26c0.766-0.766 1.375-1.676 1.789-2.677s0.628-2.074 0.628-3.158c0-1.084-0.214-2.157-0.628-3.158s-1.023-1.911-1.789-2.677z"></path>
</symbol>
<symbol id="icon-heart" viewBox="0 0 32 32">
<path fill="none" stroke="#fff" style="stroke: var(--color1, #fff)" stroke-linejoin="round" stroke-linecap="round" stroke-miterlimit="4" stroke-width="2.6667" d="M27.787 6.147c-0.681-0.681-1.49-1.222-2.38-1.591s-1.844-0.559-2.807-0.559c-0.963 0-1.917 0.19-2.807 0.559s-1.698 0.909-2.379 1.591l-1.413 1.413-1.413-1.413c-1.376-1.376-3.241-2.148-5.187-2.148s-3.811 0.773-5.187 2.148c-1.376 1.376-2.148 3.241-2.148 5.187s0.773 3.811 2.148 5.187l11.787 11.787 11.787-11.787c0.681-0.681 1.222-1.49 1.591-2.38s0.558-1.844 0.558-2.807-0.19-1.917-0.558-2.807c-0.369-0.89-0.909-1.699-1.591-2.38z"></path>
</symbol>
</defs>
</svg>
